<mxfile host="app.diagrams.net" modified="2023-06-16T08:32:14.097Z" agent="Mozilla/5.0 (Windows NT 10.0; Win64; x64) AppleWebKit/537.36 (KHTML, like Gecko) Chrome/113.0.0.0 Safari/537.36 Edg/113.0.1774.35" etag="g37FmzBRVsfMIeklp3vT" version="21.4.0" type="device">
  <diagram id="YimaGMnV5s-QCDrL5l2j" name="Page-1">
    <mxGraphModel dx="2314" dy="1124" grid="1" gridSize="10" guides="1" tooltips="1" connect="1" arrows="1" fold="1" page="1" pageScale="1" pageWidth="827" pageHeight="1169" math="0" shadow="0">
      <root>
        <mxCell id="0" />
        <mxCell id="1" parent="0" />
        <mxCell id="HGCUKCm3Jx_b27lc3u62-32" value="" style="rounded=1;whiteSpace=wrap;html=1;fillColor=#dae8fc;strokeColor=#6c8ebf;arcSize=5;" parent="1" vertex="1">
          <mxGeometry x="40" y="480" width="250" height="400" as="geometry" />
        </mxCell>
        <mxCell id="HGCUKCm3Jx_b27lc3u62-52" style="edgeStyle=orthogonalEdgeStyle;rounded=0;orthogonalLoop=1;jettySize=auto;html=1;fontSize=20;entryX=0.5;entryY=0;entryDx=0;entryDy=0;" parent="1" source="HGCUKCm3Jx_b27lc3u62-21" target="yWLFi-7v6lwdjs25CXLh-1" edge="1">
          <mxGeometry relative="1" as="geometry">
            <mxPoint x="635" y="489.37" as="targetPoint" />
          </mxGeometry>
        </mxCell>
        <mxCell id="HGCUKCm3Jx_b27lc3u62-21" value="" style="rounded=1;whiteSpace=wrap;html=1;fillColor=#f8cecc;strokeColor=#b85450;arcSize=11;" parent="1" vertex="1">
          <mxGeometry x="350" y="220" width="250" height="190" as="geometry" />
        </mxCell>
        <mxCell id="HGCUKCm3Jx_b27lc3u62-51" style="edgeStyle=orthogonalEdgeStyle;rounded=0;orthogonalLoop=1;jettySize=auto;html=1;fontSize=20;entryX=0.5;entryY=0;entryDx=0;entryDy=0;" parent="1" source="HGCUKCm3Jx_b27lc3u62-3" target="HGCUKCm3Jx_b27lc3u62-22" edge="1">
          <mxGeometry relative="1" as="geometry">
            <mxPoint x="190" y="570" as="targetPoint" />
          </mxGeometry>
        </mxCell>
        <mxCell id="HGCUKCm3Jx_b27lc3u62-3" value="" style="rounded=1;whiteSpace=wrap;html=1;fillColor=#ffe6cc;strokeColor=#d79b00;arcSize=6;" parent="1" vertex="1">
          <mxGeometry x="30" y="55" width="260" height="245" as="geometry" />
        </mxCell>
        <mxCell id="HGCUKCm3Jx_b27lc3u62-4" value="DataParser" style="text;html=1;strokeColor=none;fillColor=none;align=center;verticalAlign=middle;whiteSpace=wrap;rounded=0;fontSize=20;rotation=270;" parent="1" vertex="1">
          <mxGeometry x="-85" y="170" width="270" height="20" as="geometry" />
        </mxCell>
        <mxCell id="HGCUKCm3Jx_b27lc3u62-16" value="DiaryBuilder" style="text;html=1;strokeColor=none;fillColor=none;align=center;verticalAlign=middle;whiteSpace=wrap;rounded=0;fontSize=20;rotation=270;" parent="1" vertex="1">
          <mxGeometry x="480" y="300" width="200" height="20" as="geometry" />
        </mxCell>
        <mxCell id="HGCUKCm3Jx_b27lc3u62-22" value="" style="rounded=1;whiteSpace=wrap;html=1;fillColor=#e1d5e7;strokeColor=#9673a6;arcSize=12;" parent="1" vertex="1">
          <mxGeometry x="30" y="325.63" width="260" height="130" as="geometry" />
        </mxCell>
        <mxCell id="HGCUKCm3Jx_b27lc3u62-31" value="FlexEstimator" style="text;html=1;strokeColor=none;fillColor=none;align=center;verticalAlign=middle;whiteSpace=wrap;rounded=0;fontSize=20;rotation=270;" parent="1" vertex="1">
          <mxGeometry x="-160" y="685" width="427.5" height="20" as="geometry" />
        </mxCell>
        <mxCell id="HGCUKCm3Jx_b27lc3u62-50" value="GridModeller" style="text;html=1;strokeColor=none;fillColor=none;align=center;verticalAlign=middle;whiteSpace=wrap;rounded=0;fontSize=20;rotation=270;" parent="1" vertex="1">
          <mxGeometry x="5.620000000000001" y="381.26" width="96.25" height="20" as="geometry" />
        </mxCell>
        <mxCell id="yWLFi-7v6lwdjs25CXLh-1" value="" style="rounded=1;whiteSpace=wrap;html=1;fillColor=#d5e8d4;strokeColor=#82b366;arcSize=7;" parent="1" vertex="1">
          <mxGeometry x="350" y="440" width="250" height="250.63" as="geometry" />
        </mxCell>
        <mxCell id="yWLFi-7v6lwdjs25CXLh-2" value="ProfileAggregator" style="text;html=1;strokeColor=none;fillColor=none;align=center;verticalAlign=middle;whiteSpace=wrap;rounded=0;fontSize=20;rotation=270;" parent="1" vertex="1">
          <mxGeometry x="492.62" y="550.6299999999999" width="174.75" height="20" as="geometry" />
        </mxCell>
        <mxCell id="yWLFi-7v6lwdjs25CXLh-20" style="edgeStyle=orthogonalEdgeStyle;rounded=0;orthogonalLoop=1;jettySize=auto;html=1;fontSize=20;entryX=0.472;entryY=-0.002;entryDx=0;entryDy=0;entryPerimeter=0;exitX=0.5;exitY=1;exitDx=0;exitDy=0;" parent="1" source="HGCUKCm3Jx_b27lc3u62-22" target="HGCUKCm3Jx_b27lc3u62-32" edge="1">
          <mxGeometry relative="1" as="geometry">
            <mxPoint x="215" y="460" as="sourcePoint" />
            <mxPoint x="225" y="341" as="targetPoint" />
            <Array as="points" />
          </mxGeometry>
        </mxCell>
        <mxCell id="1KqdzW2bEXtgxiBD7hi3-1" value="&lt;span style=&quot;color: rgb(0, 0, 0); font-family: Helvetica; font-style: normal; font-variant-ligatures: normal; font-variant-caps: normal; font-weight: 400; letter-spacing: normal; orphans: 2; text-align: center; text-indent: 0px; text-transform: none; widows: 2; word-spacing: 0px; -webkit-text-stroke-width: 0px; background-color: rgb(251, 251, 251); text-decoration-thickness: initial; text-decoration-style: initial; text-decoration-color: initial; float: none; display: inline !important;&quot;&gt;&lt;font style=&quot;font-size: 14px;&quot;&gt;data read-in&lt;/font&gt;&lt;/span&gt;" style="rounded=0;whiteSpace=wrap;html=1;" vertex="1" parent="1">
          <mxGeometry x="80" y="70" width="180" height="60" as="geometry" />
        </mxCell>
        <mxCell id="1KqdzW2bEXtgxiBD7hi3-2" value="&lt;font style=&quot;font-size: 14px;&quot;&gt;filtering, cleaning&lt;/font&gt;" style="rounded=0;whiteSpace=wrap;html=1;" vertex="1" parent="1">
          <mxGeometry x="80" y="145" width="180" height="60" as="geometry" />
        </mxCell>
        <mxCell id="1KqdzW2bEXtgxiBD7hi3-3" value="&lt;font style=&quot;font-size: 14px;&quot;&gt;variable replacements&lt;/font&gt;" style="rounded=0;whiteSpace=wrap;html=1;" vertex="1" parent="1">
          <mxGeometry x="80" y="220" width="180" height="60" as="geometry" />
        </mxCell>
        <mxCell id="1KqdzW2bEXtgxiBD7hi3-4" value="&lt;font style=&quot;font-size: 14px;&quot;&gt;assign charging capability&lt;/font&gt;" style="rounded=0;whiteSpace=wrap;html=1;" vertex="1" parent="1">
          <mxGeometry x="80" y="361.26" width="180" height="60" as="geometry" />
        </mxCell>
        <mxCell id="1KqdzW2bEXtgxiBD7hi3-5" value="&lt;font style=&quot;font-size: 14px;&quot;&gt;flow profile calculation&lt;br&gt;(drain and power)&lt;/font&gt;" style="rounded=0;whiteSpace=wrap;html=1;" vertex="1" parent="1">
          <mxGeometry x="80" y="495" width="180" height="60" as="geometry" />
        </mxCell>
        <mxCell id="1KqdzW2bEXtgxiBD7hi3-6" value="&lt;font style=&quot;font-size: 14px;&quot;&gt;state profile calculation (SoC max)&lt;/font&gt;" style="rounded=0;whiteSpace=wrap;html=1;" vertex="1" parent="1">
          <mxGeometry x="80" y="570.63" width="180" height="60" as="geometry" />
        </mxCell>
        <mxCell id="1KqdzW2bEXtgxiBD7hi3-7" value="&lt;font style=&quot;font-size: 14px;&quot;&gt;flow profile calculation&lt;br&gt;(UC and fuel)&lt;/font&gt;" style="rounded=0;whiteSpace=wrap;html=1;" vertex="1" parent="1">
          <mxGeometry x="80" y="645" width="180" height="60" as="geometry" />
        </mxCell>
        <mxCell id="1KqdzW2bEXtgxiBD7hi3-8" value="&lt;font style=&quot;font-size: 14px;&quot;&gt;state profile calculation (SoC min)&lt;/font&gt;" style="rounded=0;whiteSpace=wrap;html=1;" vertex="1" parent="1">
          <mxGeometry x="80" y="720" width="180" height="60" as="geometry" />
        </mxCell>
        <mxCell id="1KqdzW2bEXtgxiBD7hi3-9" value="&lt;font style=&quot;font-size: 14px;&quot;&gt;filtering&lt;/font&gt;" style="rounded=0;whiteSpace=wrap;html=1;" vertex="1" parent="1">
          <mxGeometry x="80" y="800" width="180" height="60" as="geometry" />
        </mxCell>
        <mxCell id="1KqdzW2bEXtgxiBD7hi3-10" value="&lt;font style=&quot;font-size: 14px;&quot;&gt;composition of&lt;br&gt;daily travel diaries&lt;/font&gt;" style="rounded=0;whiteSpace=wrap;html=1;" vertex="1" parent="1">
          <mxGeometry x="380" y="245" width="180" height="60" as="geometry" />
        </mxCell>
        <mxCell id="1KqdzW2bEXtgxiBD7hi3-11" value="&lt;font style=&quot;font-size: 14px;&quot;&gt;discretisation&lt;/font&gt;" style="rounded=0;whiteSpace=wrap;html=1;" vertex="1" parent="1">
          <mxGeometry x="380" y="321.26" width="180" height="60" as="geometry" />
        </mxCell>
        <mxCell id="1KqdzW2bEXtgxiBD7hi3-12" value="&lt;font style=&quot;font-size: 14px;&quot;&gt;aggregation&lt;/font&gt;" style="rounded=0;whiteSpace=wrap;html=1;" vertex="1" parent="1">
          <mxGeometry x="370" y="461.26" width="180" height="60" as="geometry" />
        </mxCell>
        <mxCell id="1KqdzW2bEXtgxiBD7hi3-13" value="&lt;font style=&quot;font-size: 14px;&quot;&gt;weekly and annual timeseries&lt;/font&gt;" style="rounded=0;whiteSpace=wrap;html=1;" vertex="1" parent="1">
          <mxGeometry x="370" y="535.63" width="180" height="60" as="geometry" />
        </mxCell>
        <mxCell id="1KqdzW2bEXtgxiBD7hi3-14" value="&lt;font style=&quot;font-size: 14px;&quot;&gt;normalisation&lt;/font&gt;" style="rounded=0;whiteSpace=wrap;html=1;" vertex="1" parent="1">
          <mxGeometry x="370" y="610.63" width="180" height="60" as="geometry" />
        </mxCell>
        <mxCell id="1KqdzW2bEXtgxiBD7hi3-17" value="" style="edgeStyle=orthogonalEdgeStyle;rounded=0;orthogonalLoop=1;jettySize=auto;html=1;fontSize=20;entryX=0.5;entryY=0;entryDx=0;entryDy=0;exitX=0.482;exitY=0.999;exitDx=0;exitDy=0;exitPerimeter=0;" edge="1" parent="1" source="HGCUKCm3Jx_b27lc3u62-32" target="HGCUKCm3Jx_b27lc3u62-21">
          <mxGeometry relative="1" as="geometry">
            <mxPoint x="161" y="880" as="sourcePoint" />
            <mxPoint x="473.05999999999995" y="160.29999999999995" as="targetPoint" />
            <Array as="points">
              <mxPoint x="161" y="920" />
              <mxPoint x="320" y="920" />
              <mxPoint x="320" y="180" />
              <mxPoint x="475" y="180" />
            </Array>
          </mxGeometry>
        </mxCell>
      </root>
    </mxGraphModel>
  </diagram>
</mxfile>
